<svg width="40" height="40" viewBox="0 0 40 40" fill="none" xmlns="http://www.w3.org/2000/svg">
<path fill-rule="evenodd" clip-rule="evenodd" d="M20 8C13.37 8 8 13.2764 8 19.7909C8 25.0083 11.435 29.4152 16.205 30.9775C16.805 31.0806 17.03 30.7269 17.03 30.4174C17.03 30.1374 17.015 29.2088 17.015 28.2214C14 28.7667 13.22 27.4992 12.98 26.8359C12.845 26.4969 12.26 25.4505 11.75 25.1705C11.33 24.9494 10.73 24.4041 11.735 24.3893C12.68 24.3746 13.355 25.2442 13.58 25.5979C14.66 27.3813 16.385 26.8801 17.075 26.5706C17.18 25.8042 17.495 25.2884 17.84 24.9936C15.17 24.6988 12.38 23.6819 12.38 19.1719C12.38 17.8896 12.845 16.8284 13.61 16.0031C13.49 15.7083 13.07 14.4997 13.73 12.8785C13.73 12.8785 14.735 12.569 17.03 14.087C17.99 13.8217 19.01 13.6891 20.03 13.6891C21.05 13.6891 22.07 13.8217 23.03 14.087C25.325 12.5542 26.33 12.8785 26.33 12.8785C26.99 14.4997 26.57 15.7083 26.45 16.0031C27.215 16.8284 27.68 17.8749 27.68 19.1719C27.68 23.6966 24.875 24.6988 22.205 24.9936C22.64 25.3621 23.015 26.0695 23.015 27.1749C23.015 28.7519 23 30.0195 23 30.4174C23 30.7269 23.225 31.0954 23.825 30.9775C28.565 29.4152 32 24.9936 32 19.7909C32 13.2764 26.63 8 20 8Z" fill="#2E3D49"/>
</svg>
